<?xml version="1.0" encoding="UTF-8" standalone="no"?>
<!-- Created with Inkscape (http://www.inkscape.org/) -->

<svg
   version="1.1"
   id="svg1"
   width="1024"
   height="1024"
   viewBox="0 0 1024 1024"
   sodipodi:docname="logo-light.svg"
   inkscape:version="1.3.2 (091e20e, 2023-11-25)"
   xmlns:inkscape="http://www.inkscape.org/namespaces/inkscape"
   xmlns:sodipodi="http://sodipodi.sourceforge.net/DTD/sodipodi-0.dtd"
   xmlns="http://www.w3.org/2000/svg"
   xmlns:svg="http://www.w3.org/2000/svg">
  <defs
     id="defs1" />
  <sodipodi:namedview
     id="namedview1"
     pagecolor="#ffffff"
     bordercolor="#000000"
     borderopacity="0.25"
     inkscape:showpageshadow="2"
     inkscape:pageopacity="0.0"
     inkscape:pagecheckerboard="0"
     inkscape:deskcolor="#d1d1d1"
     inkscape:zoom="2.661776"
     inkscape:cx="587.76547"
     inkscape:cy="521.83205"
     inkscape:window-width="2880"
     inkscape:window-height="1567"
     inkscape:window-x="0"
     inkscape:window-y="25"
     inkscape:window-maximized="1"
     inkscape:current-layer="g1" />
  <g
     inkscape:groupmode="layer"
     inkscape:label="Image"
     id="g1">
    <path
       style="fill:#e0e0e0;stroke:none;fill-opacity:1"
       d="m 136,622 h 53 c -0.0463,11.38428 -9.0648,9 -18,9 -13.15218,0 -37.82088,-5.14771 -45.05555,9.00464 -7.70754,15.07739 1.76643,32.73389 17.05555,37.93054 5.32738,1.81073 11.45192,1.06482 17,1.06482 h 31 c 5.38028,0 16.13821,-2.05151 20.78703,0.88892 3.91144,2.474 4.61876,11.07129 6.50463,15.11108 4.43698,9.5047 11.39148,16.68311 18.70834,24 h -63 c -7.16435,0 -19.89595,-0.28223 -16.58333,10.98145 1.47157,5.00378 6.00989,5.97796 10.58333,6.01855 8.99838,0.0798 18.00122,0 27,0 h 121 417 98 c 8.05518,0 27.81543,3.74402 30.37036,-7.00464 C 863.53638,719.88281 853.0979,719 847,719 h -56 c 7.80377,-6.33203 14.30829,-12.90375 18.75464,-22 2.13281,-4.36328 3.30658,-14.48511 7.45831,-17.11108 C 821.32104,677.29053 830.27557,679 835,679 c 19.18738,0 41.8681,3.92383 51.70831,-17 5.26331,-11.19165 1.79425,-24.50494 -6.7268,-32.98145 -3.96143,-3.94079 -12.25129,-5.89434 -15.09259,-10.34265 C 863.12811,615.91931 864,611.12152 864,608 v -71 c 0,-12.08997 1.29053,-25.00909 -0.25928,-37 -3.4945,-27.03741 -14.6278,-54.0506 -22.7268,-80 C 830.87018,387.49933 820.56726,357.03278 790,338.04626 768.09003,324.43713 744.78308,324.909 720,323.98151 l -55,-2 c -55.72095,-2.08533 -111.55664,6.4295 -167,11.88421 -62.28989,6.1283 -124.69366,10.89417 -187,17 -21.97073,2.15308 -44.01047,3.83661 -66,6 -31.76987,3.12561 -61.43256,9.07099 -83.86574,34.13428 -13.97252,15.61066 -22.95752,36.15723 -25,57 C 134.75531,462.07178 136,476.85852 136,491 V 622 M 814,390 h -1 c -9.16907,-12.4679 -19.83032,-21.13745 -33,-29 1.59552,8.45953 2.23566,18.42371 -6.01849,23.71759 C 767.24133,389.04047 757.6015,387 750,387 c -14.68939,0 -29.39233,-0.99432 -44,-1 -8.2168,-0.003 -18.40674,1.479 -26,-2.37036 -12.95166,-6.5658 -16.22095,-22.33655 -8,-33.62964 -5.34357,-1.34851 -10.57953,-0.60309 -16,-1.13428 -23.85486,-2.3377 -46.74835,1.73407 -62,22.13428 9.72229,2.61188 17.33777,10.70349 23.86572,18 4.46894,4.995 7.60498,9.1424 3.13428,15 h -1 c -9.54285,-10.2298 -18.94244,-19.16315 -32,-24.86572 -15.9339,-6.95874 -32.13928,-6.29389 -49,-5.19446 -17.68219,1.15295 -35.32535,2.84753 -53,4 -64.70544,4.21918 -129.29745,9.90137 -194,14.12036 C 263.00769,393.95062 234.11057,398 205,398 c 3.65718,-8.96283 10.57939,-7.36652 19,-8.58795 18.0583,-2.61945 37.76367,-4.28546 56,-4.41205 23.48608,-0.16309 47.63013,-3.57556 71,-5.86572 15.58875,-1.52765 31.43469,-0.74323 47,-2.26856 35.66437,-3.49499 71.25977,-6.40619 107,-8.80554 21.06329,-1.41406 41.80573,-4.43164 63,-4.05554 7.06671,0.12543 17.11823,5.58008 21,-2.00464 L 565,357.01849 516,361 c 3.99158,-9.45886 12.98065,-9.4884 22,-9.98608 C 548.0423,350.45984 557.90955,349 568,349 c 4.80066,0 11.4762,1.95197 16,0.75464 4.75409,-1.25824 9.52527,-5.32886 14,-7.50928 6.37152,-3.10461 13.02155,-4.77258 20,-5.83331 18.89136,-2.87152 39.09705,0.862 58,1.56946 15.68146,0.58685 31.34595,1.41412 47,2 13.38348,0.50085 27.96136,-0.77082 41,2.74536 22.56421,6.08496 42.66785,25.21728 50,47.27313 M 686.00464,350.75464 c -9.39124,3.85113 -9.27551,19.42596 0.0139,23.31482 5.19776,2.17596 12.44916,0.89215 17.98151,0.93054 11.98004,0.0832 25.05396,-0.0364 37,1.13428 6.81146,0.66748 17.56921,3.0907 23.86108,-0.50464 9.78559,-5.59174 2.47834,-20.32007 -5.86108,-22.88428 -5.81403,-1.78772 -12.97644,-0.74304 -19,-0.74536 -10.4812,-0.004 -21.50854,-0.3761 -32,-1.06018 -6.67175,-0.43506 -15.54181,-2.8316 -21.99536,-0.18518 M 500,355 495.43518,362.11108 474,364.13428 408,370 c 5.26016,-11.07037 15.46292,-9.10168 26,-10.13428 C 455.7598,357.73334 478.1232,355 500,355 m -108,8 c -3.94437,11.21631 -12.42441,8.04016 -22,9.25928 -20.79465,2.64746 -43.68893,0.61487 -64,5.74072 2.96997,-9.78674 13.23822,-9.77905 22,-9.99536 21.35318,-0.52716 42.6467,-4.74396 64,-5.00464 m -104,9 c -2.22,6.97284 -10.7872,5.77496 -16.93982,6.51392 C 253.15639,380.66418 234.01283,382.98773 216,383 c 6.85033,-6.87787 15.89302,-6.44879 25,-7.06018 15.62976,-1.04926 31.34717,-3.45136 47,-3.93982 m 287,19 v 23 c 9.8e-4,2.47174 -0.66534,6.57208 1.47687,8.38885 3.50989,2.97669 15.91253,0.42328 20.52313,0.62964 10.94025,0.48963 16.28705,12.25843 16.93982,21.98151 0.66241,9.86737 1.87207,23.08063 -5.21759,30.93518 -6.39697,7.08716 -14.21906,5.57385 -22.72223,6.125 -5.98138,0.3877 -12.54449,1.38879 -15.93518,-5.07867 C 566.6593,470.48578 569,458.21716 569,451 v -61 l 6,1 m -29,4 c -6.50073,0.20288 -22.27094,-0.36389 -26.52313,5.15741 C 515.14093,405.78748 518,421.08569 518,428 l 33,-2 v 36 c 0,5.59668 0.88696,12.11987 -2.78705,16.84723 -3.81579,4.90979 -9.7315,3.96612 -15.21295,4.17126 C 522.87476,483.3974 512.52985,484.05908 511.13428,471 509.32361,454.05658 511,436.04523 511,419 c 0,-6.86829 -1.65829,-16.5437 1.41669,-22.91669 1.43805,-2.98034 4.63934,-3.21679 7.58331,-3.67126 5.86377,-0.90528 24.10291,-4.1897 26,2.58795 m -52,-1 v 63 c 0,7.8125 1.72751,18.80658 -5.15277,24.43054 C 483.57477,485.7403 476.33139,485 470,485 c -10.69785,0 -21.26956,1 -32,1 v -31 c 0,-6.75177 -0.042,-13.7157 5.15277,-18.84259 3.58753,-3.54059 8.14752,-3.8551 12.84723,-4.56946 C 466.35178,430.01447 477.52158,430 488,430 v -19 c -10e-4,-2.74762 0.51514,-6.33899 -1.41666,-8.59723 -2.96905,-3.47076 -13.5845,-1.3949 -17.58334,-0.81482 -14.49481,2.10254 -29.44901,1.30023 -44,3.15277 -4.65408,0.59253 -10.98813,-1.06933 -14.65741,2.60187 -3.08563,3.08722 -1.84747,6.86066 -1.47687,10.65741 0.54575,5.59119 0.13428,11.38452 0.13428,17 24.24823,0 17,34.11786 17,51 -6.15402,1.16064 -13.71561,2.22656 -18.84723,-2.33795 C 402.3757,479.4129 402.01147,471.93933 402,466 v -36 c 0,-7.36401 -2.70316,-21.81152 2.45831,-27.78705 C 408.87936,397.09467 423.68256,398.05603 430,398 c 21.35117,-0.18939 42.58542,-4 64,-4 m 224,89 v -37 c 0,-13.75653 1.52448,-23.91669 -10,-33.84723 C 696.65167,402.37402 673.07397,407 659,407 c -6.57764,0 -14.74298,0.41406 -14.95837,9 -0.10578,4.21729 1.66357,12.776 6.03704,14.52313 C 653.45264,431.87097 658.42291,431 662,431 c 10.02948,0 28.55627,-3.5484 36.98151,2.56946 C 704.89441,437.86304 705,444.37476 705,451 v 32 c -14.05096,0 -37.52417,4.51721 -47.4491,-8.06018 -7.83221,-9.92548 -9.96301,-25.17627 -13.88421,-36.93982 -2.30658,-6.91974 -6.0567,-14.61627 -6.2732,-22 -0.25323,-8.63568 5.92701,-16.29688 14.60651,-16.93982 13.41138,-0.99347 27.6687,-0.50091 41,0.80554 9.40204,0.92139 17.11023,2.15271 23.52313,10.15277 5.63678,7.0318 7.44062,16.52033 9.88892,24.98151 2.34045,8.08844 5.79376,15.87445 7.95367,24 1.48902,5.60162 3.58106,12.54608 0.58795,17.99536 C 731.37103,483.51794 724.42554,483 718,483 m 96,1 v -53 l 6,1 c -6.63147,-24.68469 -31.46393,-23 -52,-23 -7.31873,0 -25.64813,-3.5769 -24.84259,8 0.24927,3.58197 2.0033,11.02405 5.18054,13.11108 C 751.23853,432.01636 756.68658,431 760,431 c 10.01038,0 26.24402,-3.08765 34.86108,2.9259 C 800.6778,437.98517 801,444.60822 801,451 c 0,10.72858 1,21.27631 1,32 -14.81702,0 -36.64874,4.74451 -46.43518,-9 -7.93787,-11.14825 -10.00891,-28.13855 -14.23151,-41 -1.91394,-5.82965 -5.45251,-12.74988 -5.13421,-19 0.41058,-8.06244 7.33459,-12.56647 14.8009,-12.93518 6.52148,-0.32202 13.38507,0.93518 20,0.93518 17.78424,0 35.06921,-2.17657 47.72223,13 9.64142,11.56427 14.63916,32.45563 17.86572,47 1.43512,6.46912 2.16413,12.62708 -2.87036,17.84259 C 828.62134,485.12213 820.66162,484 814,484 m -479,5 c 0,-13.16376 -5.37204,-41.30853 9.00464,-48.62964 C 354.29929,435.12799 368.89691,438.80206 380,436 c -0.91876,-6.87439 3.28052,-21.0954 -2.45831,-26.37036 -3.82205,-3.51312 -11.05143,-0.98261 -15.54169,-0.68982 -13.31451,0.86816 -26.75784,1.11499 -40,2.8009 -3.8999,0.49652 -9.67288,-0.93597 -12.52316,2.47687 C 305.20404,419.33368 308,434.54755 308,441 c 21.62576,2.84619 16,33.49237 16,49 -5.61404,0 -13.08841,1.31555 -17.72223,-2.56946 C 301.51163,483.43457 302,477.60504 302,472 v -36 -20 c 0.006,-2.41675 -0.40408,-5.64221 1.47684,-7.52313 3.69519,-3.69519 14.65118,-2.21936 19.52316,-2.53705 18.63901,-1.21539 38.31827,-5.15338 56.99536,-3.91669 C 387.53574,402.5224 385,413.52856 385,419 v 40 c 0,6.22424 1.28842,14.14673 -1.15741,20 -3.474,8.31384 -10.09659,8.55511 -17.84259,9.06018 C 355.6402,488.73572 345.42187,489 335,489 m -50,-80 v 54 c 0,7.19482 1.69907,16.7619 -2.78705,22.93518 -3.63284,4.99909 -10.43374,5.95764 -16.21295,6.06018 -13.36711,0.23718 -26.64449,0.52332 -40,1.02313 -7.63004,0.28553 -14.18039,1.99274 -19.65741,-5.03698 C 203.40559,484.21191 204,479.49683 204,475 v -28 c 0,-7.69867 -3.38425,-26.21136 3.15741,-31.54163 5.2224,-4.25531 18.34463,-3.43335 24.84259,-3.45837 17.68649,-0.0682 35.2464,-3 53,-3 m -74,39 69,-4 V 425 L 278.37036,416.47687 263,415.74072 227,418.00464 211.8889,420.47687 211,428 v 20 m -25,-32 c 4.03609,6.98254 2,18.07092 2,26 0,17.8147 7.23245,52.11322 -18,53.01849 -2.28003,0.0818 -4.73853,0.75177 -7,0.27784 -14.47163,-3.03278 -12.76445,-31.92023 -4.72223,-40.13892 5.8438,-5.97205 17.03981,-4.2453 24.72223,-5.15741 0,-8.93323 -3.46124,-27.2467 3,-34 m 443,28 11,37 h -18 c 6.02156,-12.01066 6.30672,-23.92154 7,-37 m 2,52 0.25,8.21468 L 610,505 l -41,1 v -9 l 62,-1 m 218,3 v 10 L 726,507 656.25745,505.07363 655.67089,498 c 14.1508,0.39212 -78.48526,-2.50728 193.32911,1 m -299,-2 v 8 l -39,1 v -8 l 39,-1 m -56,9 -35,1.06018 -102,2.95831 L 150,516 l 1,-6 c 13.86986,0 28.19591,0.39099 41.98148,-1.07867 2.80351,-0.29889 5.18997,-1.73505 8.03704,-1.8982 39.2565,-2.24981 78.68201,-1.57086 117.98148,-3.04162 31.5741,-1.18164 63.41235,-3.9206 95,-3.98151 20.04883,-0.0386 39.94031,-0.86072 60,-1 8.64752,-0.0601 19.95053,-5.14838 20,7 m -299,4 1,1 -1,-1 m -9,1 1,1 -1,-1 m 9.33333,1.66663 0.33334,0.66674 -0.33334,-0.66674 m 435.01574,13.03509 c -6.80378,-0.64473 -26.21102,2.52888 -26.3076,-4.56311 -0.09,-6.6077 6.25025,-5.29329 10.95853,-5.13861 6.99524,-0.003 14.00629,-0.13568 21,0.005 2.87683,0.0577 10.14788,-0.26708 10.05127,4.46165 0.012,6.14227 -6.91834,5.50557 -15.32589,5.22961 M 493.11111,538.52319 472,540 412,541.86572 378,542 318,543.01855 150,546 v -5 l 42,-1.08331 8,-2.70374 24,-1.1944 269.68344,-6.03326 M 722,532 H 680.2647 L 680,544 c -10.61536,5.15649 -12.4082,14.95398 -16,25 h -1 l 1,-45 42,-1 14.52313,0.88892 L 722,532 m 26.06482,-7.52319 C 752.72552,522.65063 760.0401,524 765,524 c 11.98566,0 25.11279,-1.53052 36.98151,0.0833 4.2398,0.57648 6.81048,6.06244 2.6759,8.85187 C 801.30219,535.19873 794.85718,534 791,534 h -29 c -4.14532,0 -10.0271,1.05444 -13.93518,-0.47681 -4.35217,-1.70532 -4.35217,-7.34106 0,-9.04638 M 849,524 v 9 h -27 v -9 h 27 m -256,1 c 2.83136,5.81079 7.72565,10.29309 14,12 v 1 l -38,1 v -10 h 24 v -4 m 36,3 0.61776,4.16361 L 630,538 H 615 L 614.9026,529.0476 629,528 m -79,2 v 9 c -9.4115,0 -18.65259,0.63165 -28,0.98145 -2.69513,0.10089 -8.22302,0.97949 -10.11111,-1.45826 -2.42679,-3.1333 -0.60111,-7.92236 3.13424,-8.43988 C 526.45233,528.49976 538.58325,529.96124 550,530 m -399,14 1,1 -1,-1 m 598.01849,5.34259 C 754.72241,547.80524 762.11383,549 768,549 c 10.71375,0 22.37958,-1.32092 32.99536,0.0833 3.95502,0.52314 8.43298,5.9914 3.78705,9.02777 C 801.4837,560.26697 794.78339,559 791,559 h -29 c -4.18872,0 -10.0141,1.02966 -13.97687,-0.47681 -5.19629,-1.97546 -3.8172,-7.88348 0.99536,-9.1806 M 697,550.27777 c 22.46216,-3.75238 27.18646,34.41303 5,37.42597 -21.66321,2.94189 -26.24609,-33.87671 -5,-37.42597 m 143,0.0185 c 21.79486,-2.96814 25.71564,34.69788 5,37.55097 -22.37262,3.08136 -27.16028,-34.53302 -5,-37.55097 m -141.98151,11.3982 c -8.50195,2.50244 -4.77026,17.75464 3.91669,14.65741 7.95685,-2.83698 4.2901,-17.07294 -3.91669,-14.65741 M 624,644 611,645 C 607.07263,620.19836 595.90918,594.52271 573,584.30554 540.39355,569.76355 502.07025,597.33618 497,631 l -8,-1 c 0.42337,-34.66571 35.83801,-70.23254 71,-67.93982 22.1059,1.44141 53.25306,31.4237 55.04869,38.72961 m 224.10408,-38.16015 c -7.93512,3.3717 -2.33685,17.40356 5.78241,13.28699 7.80084,-3.95508 2.47467,-16.79541 -5.78241,-13.28699 M 335,622 c 2.32963,7.586 2.38346,10.82923 2,22 l -14,1 c -1.09232,-34.99854 -33.16602,-74.13733 -71,-61.65741 -4.87392,1.60773 -9.83345,3.91052 -14,6.92133 -6.36438,4.59893 -11.86418,10.24707 -16.27779,16.73608 -4.94784,7.27441 -8.82281,15.38544 -10.72221,24 l -8,-1 c 7.55697,-23.0079 7.64178,-33.20232 25,-48.93982 23.39145,-21.85571 59.49396,-20.97351 83,0.0741 C 323.22195,592.078 330.57773,606.44287 335,622 M 749.02313,574.34259 C 754.1286,572.94043 760.72968,574 766,574 c 10.96161,0 22.05139,-0.49353 33,0.0186 4.24835,0.19867 11.29968,4.77381 5.65741,8.97217 C 801.19971,585.5636 795.02942,584.00159 791,584 h -30 c -3.82599,0 -9.32184,0.98914 -12.91669,-0.47681 -4.56067,-1.85986 -3.38745,-7.99218 0.93982,-9.1806 m 18,25.13422 c 5.34174,-2.02657 25.48763,-1.01238 27.5,1 2.36927,2.36932 3.52143,18.56805 0.12042,20.06488 -5.87635,2.58624 -29.0733,0.31912 -30.01391,-0.43061 -4.13587,-3.29644 -3.5168,-18.76025 1.42289,-20.63427 M 719.52938,603 724.72877,618.81741 698.91176,618.00008 700,603 m 149,0 v 9 L 821.73529,620.02951 822,603 h 27 m -258,48 h -1 c -5.45905,-20.63257 -15.27368,-38.42078 -38,-43 5.57574,-3.24786 12.35242,-1.5863 18,0.85187 17.38049,7.50335 22.13562,25.24194 21,42.14813 m -287,0 h -1 C 299.33453,639.64941 296.09872,627.52747 286.98148,619.13892 281.48367,614.08044 274.63553,611.17822 268,608 c 15.76065,-7.61084 32.4686,13.71588 35.52313,27 1.16681,5.07446 0.47687,10.81873 0.47687,16 m 190,-29 1,1 -1,-1 m -290,5 v 0 m 337,52 v -1 c 15.65704,-1.10474 24.25153,-19.47424 10.86108,-30.25928 C 546.40521,643.34644 540.59509,642.75616 534,644 c 6.1698,-12.70178 21.87396,-15.42468 31.52313,-4.73608 11.8631,13.14087 7.15772,38.98309 -11.52313,42.30554 -4.76233,0.84698 -8.64935,-0.9018 -13,-2.56946 m -287,0 v -1 c 3.19333,-0.42029 6.21982,-1.20142 9,-2.9259 18.00299,-11.16712 2.8945,-34.43683 -15,-31.0741 4.04573,-11.36353 19.01791,-14.67999 27.99536,-6.84723 13.64389,11.90424 10.66516,40.64545 -8.99536,44.24078 -4.7442,0.86756 -8.7088,-0.43426 -13,-2.39355 M 873,643 H 649 c 10.9281,-14.27051 32.13361,-10 48,-10 h 126 c 11.85608,0 25.3432,-1.7821 37,0.43054 5.96368,1.13196 10.89404,3.7107 13,9.56946 m -379,-5 v 6 h -6 c 0.21771,-4.51038 1.48962,-5.78229 6,-6 m -286,1 v 7 h -6 v -7 h 6 m -20,2 v 6 h -54 c 3.44978,-6.98633 8.51566,-5.64844 15.25926,-5.875 C 162.15201,640.69177 175.09908,641 188,641 m 15,3 1,1 -1,-1 m 666,9 c -2.38727,14.36304 -29.03717,9 -40,9 H 699 c -11.69238,0 -23.43378,0.45563 -35.06018,-0.78241 C 657.9339,660.57806 652.84741,661.36072 652,654 L 701,652.00464 869,653 m 3,0.33337 c 0.77325,0 0.16022,0.49781 -0.33331,0.33326 L 872,653.33337 m -226.33331,1.33326 -0.33338,0.66674 0.33338,-0.66674 M 656,655 l 1,1 -1,-1 M 472.58732,666.13419 324,667 v -8 h 79 l 34,-0.54626 34.82264,1.56649 M 624,660 v 6 h -11 v -7 l 11,1 m -131,0 v 6 h -21 v -6 h 21 m -187,15 c -1.27704,10.4574 -5.97458,21.79529 -14.00464,28.84723 C 278.80322,715.4325 258.46838,712.68054 248,699 c 4.7605,1.62769 8.85284,4.32361 14,4.86572 21.10144,2.22241 31.21991,-12.85119 39,-29.86572 l 5,1 m 288,1 c -2.48828,11.28528 -7.66602,22.33624 -17,29.52313 -12.67139,9.75666 -33.00385,6.65436 -42,-6.52313 4.63794,1.88159 8.92029,4.33069 14,4.86572 18.4397,1.94208 34.32025,-11.44604 39,-28.86572 l 6,1 m 95,3 c 1.41907,10.83813 7.14789,21.81592 14.26392,29.99536 C 706.37164,712.5675 710.29193,715.1095 713,719 H 607 l 16.70831,-22 6.75006,-17.11108 L 647,679 h 42 m -307,40 h -64 l 10.97684,-13 7.16205,-10.11108 L 348,695 363.67593,695.47681 369.0463,703 382,719 m 142,-1 v 1 h -56 l 11.49536,-13 6.65741,-10.11108 L 497,695 505.67593,695.88892 511.41666,704 524,718 m -389.98148,1.58795 c -10.15446,2.79401 -4.93788,18.54535 4.96296,14.93524 8.97863,-3.27392 4.18939,-17.45349 -4.96296,-14.93524 m 744.98612,0.0602 c -9.87567,3.37268 -4.89404,18.75824 4.97687,15.25 9.80828,-3.48602 4.664,-18.54248 -4.97687,-15.25 z"
       id="path1"
       sodipodi:nodetypes="ccssssssscssssccssscsssssssssssccssssssccccsscscscsccsssscsssssscccssssssssccssssssscccccsccscsccscscccssssssscccsccsssssssccssscsssccsssssccscsssccsssssssscsssssssssccccsssssscssssssssccscssssccssccsssssssccssssssssccccccccccccssssccccccccccccccccccccccccccccscssscccccccccccscccccccccccccccccccccccccsssssscccccccccccccccccccccssscccccssssssccsccsccscccsccsccsccccsssccssccssscssccssscccccccccccccscccscsccccccccscsscccccsscccssscccccccccccccscccccssscccccccccccccccccccccccccccccscscccscscccsccccccccccccccccccccccccscsss" />
  </g>
</svg>
